# xmcd
#
# Track frame offsets:
#	150
#	22122
#	50270
#	79677
#	98295
#	125612
#	143585
#	164147
#	185700
#	206209
#
# Disc length: 2969 seconds
#
# Revision: 1
# Processed by: cddbd v1.5.2PL0 Copyright (c) Steve Scherf et al.
# Submitted via: audiograbber 1.83.01
#
DISCID=890b970a
DTITLE=Sampler - Unser Kamp Teil 4
DYEAR=1998
DGENRE=RAC
TTITLE0=Hauptkampflinie - Vergiss nie dein Land
TTITLE1=Hauptkampflinie - 16
TTITLE2=08/15 - The road to Valhalla
TTITLE3=08/15 - Zorn der Götter
TTITLE4=Tribute - Patriot
TTITLE5=Rheinwacht - Wellen der Freiheit
TTITLE6=Kraftschlag - Der letzte Wikinger
TTITLE7=Kraftschlag - Wird dieses Land uns je verstehen?
TTITLE8=Nordwind - Vaterland
TTITLE9=Nordwind - 12 white horses
EXTD=
EXTT0=
EXTT1=
EXTT2=
EXTT3=
EXTT4=
EXTT5=
EXTT6=
EXTT7=
EXTT8=
EXTT9=
PLAYORDER=
